<!--?xml version="1.0" encoding="us-ascii" standalone="no"?--><svg xmlns="http://www.w3.org/2000/svg" xmlns:xlink="http://www.w3.org/1999/xlink" contentstyletype="text/css" height="490px" preserveAspectRatio="none" style="width:1160px;height:490px;background:#FFFFFF;" version="1.1" viewBox="0 0 1160 490" width="1160px" zoomAndPan="magnify"><defs></defs><g><ellipse cx="453.875" cy="20" fill="#222222" rx="10" ry="10" style="stroke:#222222;stroke-width:1.0;"></ellipse><rect fill="#F1F1F1" height="33.9688" rx="12.5" ry="12.5" style="stroke:#181818;stroke-width:0.5;" width="133" x="387.375" y="50"></rect><text fill="#000000" font-family="sans-serif" font-size="12" lengthAdjust="spacing" textLength="113" x="397.375" y="71.1387">Render index.html</text><rect fill="#F1F1F1" height="33.9688" rx="12.5" ry="12.5" style="stroke:#181818;stroke-width:0.5;" width="250" x="328.875" y="103.9688"></rect><text fill="#000000" font-family="sans-serif" font-size="12" lengthAdjust="spacing" textLength="230" x="338.875" y="125.1074">Receive source and target from user</text><polygon fill="#F1F1F1" points="347.375,157.9375,560.375,157.9375,572.375,169.9375,560.375,181.9375,347.375,181.9375,335.375,169.9375,347.375,157.9375" style="stroke:#181818;stroke-width:0.5;"></polygon><text fill="#000000" font-family="sans-serif" font-size="11" lengthAdjust="spacing" textLength="213" x="347.375" y="173.7456">Check if source and target are empty</text><text fill="#000000" font-family="sans-serif" font-size="11" lengthAdjust="spacing" textLength="20" x="315.375" y="167.3433">yes</text><text fill="#000000" font-family="sans-serif" font-size="11" lengthAdjust="spacing" textLength="14" x="572.375" y="167.3433">no</text><rect fill="#F1F1F1" height="33.9688" rx="12.5" ry="12.5" style="stroke:#181818;stroke-width:0.5;" width="253" x="11" y="191.9375"></rect><text fill="#000000" font-family="sans-serif" font-size="12" lengthAdjust="spacing" textLength="233" x="21" y="213.0762">Display error message and go to End</text><polygon fill="#F1F1F1" points="673.25,191.9375,927.25,191.9375,939.25,203.9375,927.25,215.9375,673.25,215.9375,661.25,203.9375,673.25,191.9375" style="stroke:#181818;stroke-width:0.5;"></polygon><text fill="#000000" font-family="sans-serif" font-size="11" lengthAdjust="spacing" textLength="254" x="673.25" y="207.7456">Check if source and target are valid stations</text><text fill="#000000" font-family="sans-serif" font-size="11" lengthAdjust="spacing" textLength="20" x="641.25" y="201.3433">yes</text><text fill="#000000" font-family="sans-serif" font-size="11" lengthAdjust="spacing" textLength="14" x="939.25" y="201.3433">no</text><rect fill="#F1F1F1" height="33.9688" rx="12.5" ry="12.5" style="stroke:#181818;stroke-width:0.5;" width="303" x="426" y="225.9375"></rect><text fill="#000000" font-family="sans-serif" font-size="12" lengthAdjust="spacing" textLength="283" x="436" y="247.0762">Generate subway map using generate_map()</text><polygon fill="#F1F1F1" points="437,279.9063,718,279.9063,730,291.9063,718,303.9063,437,303.9063,425,291.9063,437,279.9063" style="stroke:#181818;stroke-width:0.5;"></polygon><text fill="#000000" font-family="sans-serif" font-size="11" lengthAdjust="spacing" textLength="281" x="437" y="295.7144">Check if a path exists between source and target</text><text fill="#000000" font-family="sans-serif" font-size="11" lengthAdjust="spacing" textLength="20" x="405" y="289.312">yes</text><text fill="#000000" font-family="sans-serif" font-size="11" lengthAdjust="spacing" textLength="14" x="730" y="289.312">no</text><rect fill="#F1F1F1" height="33.9688" rx="12.5" ry="12.5" style="stroke:#181818;stroke-width:0.5;" width="282" x="274" y="313.9063"></rect><text fill="#000000" font-family="sans-serif" font-size="12" lengthAdjust="spacing" textLength="262" x="284" y="335.0449">Render map.html with the generated map</text><rect fill="#F1F1F1" height="33.9688" rx="12.5" ry="12.5" style="stroke:#181818;stroke-width:0.5;" width="253" x="613.5" y="313.9063"></rect><text fill="#000000" font-family="sans-serif" font-size="12" lengthAdjust="spacing" textLength="233" x="623.5" y="335.0449">Display error message and go to End</text><polygon fill="#F1F1F1" points="577.5,353.875,589.5,365.875,577.5,377.875,565.5,365.875,577.5,353.875" style="stroke:#181818;stroke-width:0.5;"></polygon><rect fill="#F1F1F1" height="33.9688" rx="12.5" ry="12.5" style="stroke:#181818;stroke-width:0.5;" width="253" x="896.5" y="225.9375"></rect><text fill="#000000" font-family="sans-serif" font-size="12" lengthAdjust="spacing" textLength="233" x="906.5" y="247.0762">Display error message and go to End</text><polygon fill="#F1F1F1" points="800.25,383.875,812.25,395.875,800.25,407.875,788.25,395.875,800.25,383.875" style="stroke:#181818;stroke-width:0.5;"></polygon><polygon fill="#F1F1F1" points="453.875,413.875,465.875,425.875,453.875,437.875,441.875,425.875,453.875,413.875" style="stroke:#181818;stroke-width:0.5;"></polygon><ellipse cx="453.875" cy="468.875" fill="none" rx="11" ry="11" style="stroke:#222222;stroke-width:1.0;"></ellipse><ellipse cx="453.875" cy="468.875" fill="#222222" rx="6" ry="6" style="stroke:#111111;stroke-width:1.0;"></ellipse><line style="stroke:#181818;stroke-width:1.0;" x1="453.875" x2="453.875" y1="30" y2="50"></line><polygon fill="#181818" points="449.875,40,453.875,50,457.875,40,453.875,44" style="stroke:#181818;stroke-width:1.0;"></polygon><line style="stroke:#181818;stroke-width:1.0;" x1="453.875" x2="453.875" y1="83.9688" y2="103.9688"></line><polygon fill="#181818" points="449.875,93.9688,453.875,103.9688,457.875,93.9688,453.875,97.9688" style="stroke:#181818;stroke-width:1.0;"></polygon><line style="stroke:#181818;stroke-width:1.0;" x1="425" x2="415" y1="291.9063" y2="291.9063"></line><line style="stroke:#181818;stroke-width:1.0;" x1="415" x2="415" y1="291.9063" y2="313.9063"></line><polygon fill="#181818" points="411,303.9063,415,313.9063,419,303.9063,415,307.9063" style="stroke:#181818;stroke-width:1.0;"></polygon><line style="stroke:#181818;stroke-width:1.0;" x1="730" x2="740" y1="291.9063" y2="291.9063"></line><line style="stroke:#181818;stroke-width:1.0;" x1="740" x2="740" y1="291.9063" y2="313.9063"></line><polygon fill="#181818" points="736,303.9063,740,313.9063,744,303.9063,740,307.9063" style="stroke:#181818;stroke-width:1.0;"></polygon><line style="stroke:#181818;stroke-width:1.0;" x1="415" x2="415" y1="347.875" y2="365.875"></line><line style="stroke:#181818;stroke-width:1.0;" x1="415" x2="565.5" y1="365.875" y2="365.875"></line><polygon fill="#181818" points="555.5,361.875,565.5,365.875,555.5,369.875,559.5,365.875" style="stroke:#181818;stroke-width:1.0;"></polygon><line style="stroke:#181818;stroke-width:1.0;" x1="740" x2="740" y1="347.875" y2="365.875"></line><line style="stroke:#181818;stroke-width:1.0;" x1="740" x2="589.5" y1="365.875" y2="365.875"></line><polygon fill="#181818" points="599.5,361.875,589.5,365.875,599.5,369.875,595.5,365.875" style="stroke:#181818;stroke-width:1.0;"></polygon><line style="stroke:#181818;stroke-width:1.0;" x1="577.5" x2="577.5" y1="259.9063" y2="279.9063"></line><polygon fill="#181818" points="573.5,269.9063,577.5,279.9063,581.5,269.9063,577.5,273.9063" style="stroke:#181818;stroke-width:1.0;"></polygon><line style="stroke:#181818;stroke-width:1.0;" x1="661.25" x2="577.5" y1="203.9375" y2="203.9375"></line><line style="stroke:#181818;stroke-width:1.0;" x1="577.5" x2="577.5" y1="203.9375" y2="225.9375"></line><polygon fill="#181818" points="573.5,215.9375,577.5,225.9375,581.5,215.9375,577.5,219.9375" style="stroke:#181818;stroke-width:1.0;"></polygon><line style="stroke:#181818;stroke-width:1.0;" x1="939.25" x2="1023" y1="203.9375" y2="203.9375"></line><line style="stroke:#181818;stroke-width:1.0;" x1="1023" x2="1023" y1="203.9375" y2="225.9375"></line><polygon fill="#181818" points="1019,215.9375,1023,225.9375,1027,215.9375,1023,219.9375" style="stroke:#181818;stroke-width:1.0;"></polygon><line style="stroke:#181818;stroke-width:1.0;" x1="577.5" x2="577.5" y1="377.875" y2="395.875"></line><line style="stroke:#181818;stroke-width:1.0;" x1="577.5" x2="788.25" y1="395.875" y2="395.875"></line><polygon fill="#181818" points="778.25,391.875,788.25,395.875,778.25,399.875,782.25,395.875" style="stroke:#181818;stroke-width:1.0;"></polygon><line style="stroke:#181818;stroke-width:1.0;" x1="1023" x2="1023" y1="259.9063" y2="395.875"></line><line style="stroke:#181818;stroke-width:1.0;" x1="1023" x2="812.25" y1="395.875" y2="395.875"></line><polygon fill="#181818" points="822.25,391.875,812.25,395.875,822.25,399.875,818.25,395.875" style="stroke:#181818;stroke-width:1.0;"></polygon><line style="stroke:#181818;stroke-width:1.0;" x1="335.375" x2="137.5" y1="169.9375" y2="169.9375"></line><line style="stroke:#181818;stroke-width:1.0;" x1="137.5" x2="137.5" y1="169.9375" y2="191.9375"></line><polygon fill="#181818" points="133.5,181.9375,137.5,191.9375,141.5,181.9375,137.5,185.9375" style="stroke:#181818;stroke-width:1.0;"></polygon><line style="stroke:#181818;stroke-width:1.0;" x1="572.375" x2="800.25" y1="169.9375" y2="169.9375"></line><line style="stroke:#181818;stroke-width:1.0;" x1="800.25" x2="800.25" y1="169.9375" y2="191.9375"></line><polygon fill="#181818" points="796.25,181.9375,800.25,191.9375,804.25,181.9375,800.25,185.9375" style="stroke:#181818;stroke-width:1.0;"></polygon><line style="stroke:#181818;stroke-width:1.0;" x1="137.5" x2="137.5" y1="225.9063" y2="425.875"></line><line style="stroke:#181818;stroke-width:1.0;" x1="137.5" x2="441.875" y1="425.875" y2="425.875"></line><polygon fill="#181818" points="431.875,421.875,441.875,425.875,431.875,429.875,435.875,425.875" style="stroke:#181818;stroke-width:1.0;"></polygon><line style="stroke:#181818;stroke-width:1.0;" x1="800.25" x2="800.25" y1="407.875" y2="425.875"></line><line style="stroke:#181818;stroke-width:1.0;" x1="800.25" x2="465.875" y1="425.875" y2="425.875"></line><polygon fill="#181818" points="475.875,421.875,465.875,425.875,475.875,429.875,471.875,425.875" style="stroke:#181818;stroke-width:1.0;"></polygon><line style="stroke:#181818;stroke-width:1.0;" x1="453.875" x2="453.875" y1="137.9375" y2="157.9375"></line><polygon fill="#181818" points="449.875,147.9375,453.875,157.9375,457.875,147.9375,453.875,151.9375" style="stroke:#181818;stroke-width:1.0;"></polygon><line style="stroke:#181818;stroke-width:1.0;" x1="453.875" x2="453.875" y1="437.875" y2="457.875"></line><polygon fill="#181818" points="449.875,447.875,453.875,457.875,457.875,447.875,453.875,451.875" style="stroke:#181818;stroke-width:1.0;"></polygon><!--SRC=[ZP0nSeGm34LxJl5BQ7A0fKmowNE1Z1OBumdOZ2MMvVOHB9F9XeR6zaZ__sT9bB8Mbq-EZZE2dVUNJeU-NciDXnj3qfGR1aK74tjMj3aDc8HpNOGMvMl7pJViTLHIPl0mwb91Euue5vQg02vlGSQU5d3EAMDW4V8Ffq_GXFVewe9xOPGnhOuJe1lrmK6KDAGe_uZ6_E38cTGccgwpiGSQROeGFVpU-R9IMTMR_0b864axy3s82gwiCrlsuHi7fb7trLhojbZCmO9CzWjrQ-_1_3lmPZwrfiqPNMZNvtF4sO3Tlb-YQVm1]--></g></svg>