<!--?xml version="1.0" encoding="us-ascii" standalone="no"?--><svg xmlns="http://www.w3.org/2000/svg" xmlns:xlink="http://www.w3.org/1999/xlink" contentstyletype="text/css" height="359px" preserveAspectRatio="none" style="width:1219px;height:359px;background:#FFFFFF;" version="1.1" viewBox="0 0 1219 359" width="1219px" zoomAndPan="magnify"><defs></defs><g><!--cluster Web Application--><g id="cluster_Web Application"><path d="M8.5,6 L136.5,6 A3.75,3.75 0 0 1 139,8.5 L146,28.2969 L381.5,28.2969 A2.5,2.5 0 0 1 384,30.7969 L384,226.09 A2.5,2.5 0 0 1 381.5,228.59 L8.5,228.59 A2.5,2.5 0 0 1 6,226.09 L6,8.5 A2.5,2.5 0 0 1 8.5,6 " fill="none" style="stroke:#000000;stroke-width:1.5;"></path><line style="stroke:#000000;stroke-width:1.5;" x1="6" x2="146" y1="28.2969" y2="28.2969"></line><text fill="#000000" font-family="sans-serif" font-size="14" font-weight="bold" lengthAdjust="spacing" textLength="127" x="10" y="20.9951">Web Application</text></g><!--cluster Generate Map--><g id="cluster_Generate Map"><path d="M514.5,6 L626.5,6 A3.75,3.75 0 0 1 629,8.5 L636,28.2969 L842.5,28.2969 A2.5,2.5 0 0 1 845,30.7969 L845,100.79 A2.5,2.5 0 0 1 842.5,103.29 L514.5,103.29 A2.5,2.5 0 0 1 512,100.79 L512,8.5 A2.5,2.5 0 0 1 514.5,6 " fill="none" style="stroke:#000000;stroke-width:1.5;"></path><line style="stroke:#000000;stroke-width:1.5;" x1="512" x2="636" y1="28.2969" y2="28.2969"></line><text fill="#000000" font-family="sans-serif" font-size="14" font-weight="bold" lengthAdjust="spacing" textLength="111" x="516" y="20.9951">Generate Map</text></g><!--cluster External Services--><g id="cluster_External Services"><path d="M871.5,6 L1009.5,6 A3.75,3.75 0 0 1 1012,8.5 L1019,28.2969 L1209.5,28.2969 A2.5,2.5 0 0 1 1212,30.7969 L1212,100.79 A2.5,2.5 0 0 1 1209.5,103.29 L871.5,103.29 A2.5,2.5 0 0 1 869,100.79 L869,8.5 A2.5,2.5 0 0 1 871.5,6 " fill="none" style="stroke:#000000;stroke-width:1.5;"></path><line style="stroke:#000000;stroke-width:1.5;" x1="869" x2="1019" y1="28.2969" y2="28.2969"></line><text fill="#000000" font-family="sans-serif" font-size="14" font-weight="bold" lengthAdjust="spacing" textLength="137" x="873" y="20.9951">External Services</text></g><!--entity Flask Framework--><g id="elem_Flask Framework"><rect fill="#F1F1F1" height="46.2969" rx="2.5" ry="2.5" style="stroke:#181818;stroke-width:0.5;" width="155" x="22.5" y="41"></rect><rect fill="#F1F1F1" height="10" style="stroke:#181818;stroke-width:0.5;" width="15" x="157.5" y="46"></rect><rect fill="#F1F1F1" height="2" style="stroke:#181818;stroke-width:0.5;" width="4" x="155.5" y="48"></rect><rect fill="#F1F1F1" height="2" style="stroke:#181818;stroke-width:0.5;" width="4" x="155.5" y="52"></rect><text fill="#000000" font-family="sans-serif" font-size="14" lengthAdjust="spacing" textLength="115" x="37.5" y="73.9951">Flask Framework</text></g><!--entity HTML Templates--><g id="elem_HTML Templates"><rect fill="#F1F1F1" height="46.2969" rx="2.5" ry="2.5" style="stroke:#181818;stroke-width:0.5;" width="155" x="212.5" y="41"></rect><rect fill="#F1F1F1" height="10" style="stroke:#181818;stroke-width:0.5;" width="15" x="347.5" y="46"></rect><rect fill="#F1F1F1" height="2" style="stroke:#181818;stroke-width:0.5;" width="4" x="345.5" y="48"></rect><rect fill="#F1F1F1" height="2" style="stroke:#181818;stroke-width:0.5;" width="4" x="345.5" y="52"></rect><text fill="#000000" font-family="sans-serif" font-size="14" lengthAdjust="spacing" textLength="115" x="227.5" y="73.9951">HTML Templates</text></g><!--entity Static Files--><g id="elem_Static Files"><rect fill="#F1F1F1" height="46.2969" rx="2.5" ry="2.5" style="stroke:#181818;stroke-width:0.5;" width="113" x="43.5" y="166.29"></rect><rect fill="#F1F1F1" height="10" style="stroke:#181818;stroke-width:0.5;" width="15" x="136.5" y="171.29"></rect><rect fill="#F1F1F1" height="2" style="stroke:#181818;stroke-width:0.5;" width="4" x="134.5" y="173.29"></rect><rect fill="#F1F1F1" height="2" style="stroke:#181818;stroke-width:0.5;" width="4" x="134.5" y="177.29"></rect><text fill="#000000" font-family="sans-serif" font-size="14" lengthAdjust="spacing" textLength="73" x="58.5" y="199.2851">Static Files</text></g><!--entity generate_map.py--><g id="elem_generate_map.py"><rect fill="#F1F1F1" height="46.2969" rx="2.5" ry="2.5" style="stroke:#181818;stroke-width:0.5;" width="160" x="669" y="41"></rect><rect fill="#F1F1F1" height="10" style="stroke:#181818;stroke-width:0.5;" width="15" x="809" y="46"></rect><rect fill="#F1F1F1" height="2" style="stroke:#181818;stroke-width:0.5;" width="4" x="807" y="48"></rect><rect fill="#F1F1F1" height="2" style="stroke:#181818;stroke-width:0.5;" width="4" x="807" y="52"></rect><text fill="#000000" font-family="sans-serif" font-size="14" lengthAdjust="spacing" textLength="120" x="684" y="73.9951">generate_map.py</text></g><!--entity NetworkX--><g id="elem_NetworkX"><rect fill="#F1F1F1" height="46.2969" rx="2.5" ry="2.5" style="stroke:#181818;stroke-width:0.5;" width="106" x="528" y="41"></rect><rect fill="#F1F1F1" height="10" style="stroke:#181818;stroke-width:0.5;" width="15" x="614" y="46"></rect><rect fill="#F1F1F1" height="2" style="stroke:#181818;stroke-width:0.5;" width="4" x="612" y="48"></rect><rect fill="#F1F1F1" height="2" style="stroke:#181818;stroke-width:0.5;" width="4" x="612" y="52"></rect><text fill="#000000" font-family="sans-serif" font-size="14" lengthAdjust="spacing" textLength="66" x="543" y="73.9951">NetworkX</text></g><!--entity HTTP Requests--><g id="elem_HTTP Requests"><rect fill="#F1F1F1" height="46.2969" rx="2.5" ry="2.5" style="stroke:#181818;stroke-width:0.5;" width="148" x="1048" y="41"></rect><rect fill="#F1F1F1" height="10" style="stroke:#181818;stroke-width:0.5;" width="15" x="1176" y="46"></rect><rect fill="#F1F1F1" height="2" style="stroke:#181818;stroke-width:0.5;" width="4" x="1174" y="48"></rect><rect fill="#F1F1F1" height="2" style="stroke:#181818;stroke-width:0.5;" width="4" x="1174" y="52"></rect><text fill="#000000" font-family="sans-serif" font-size="14" lengthAdjust="spacing" textLength="108" x="1063" y="73.9951">HTTP Requests</text></g><!--entity JSON Parsing--><g id="elem_JSON Parsing"><rect fill="#F1F1F1" height="46.2969" rx="2.5" ry="2.5" style="stroke:#181818;stroke-width:0.5;" width="128" x="885" y="41"></rect><rect fill="#F1F1F1" height="10" style="stroke:#181818;stroke-width:0.5;" width="15" x="993" y="46"></rect><rect fill="#F1F1F1" height="2" style="stroke:#181818;stroke-width:0.5;" width="4" x="991" y="48"></rect><rect fill="#F1F1F1" height="2" style="stroke:#181818;stroke-width:0.5;" width="4" x="991" y="52"></rect><text fill="#000000" font-family="sans-serif" font-size="14" lengthAdjust="spacing" textLength="88" x="900" y="73.9951">JSON Parsing</text></g><!--entity WebApp--><g id="elem_WebApp"><ellipse cx="484" cy="64.14" fill="#F1F1F1" rx="8" ry="8" style="stroke:#181818;stroke-width:0.5;"></ellipse><text fill="#000000" font-family="sans-serif" font-size="14" lengthAdjust="spacing" textLength="58" x="455" y="94.1351">WebApp</text></g><!--entity GenerateMap--><g id="elem_GenerateMap"><ellipse cx="484" cy="189.44" fill="#F1F1F1" rx="8" ry="8" style="stroke:#181818;stroke-width:0.5;"></ellipse><text fill="#000000" font-family="sans-serif" font-size="14" lengthAdjust="spacing" textLength="94" x="437" y="219.4351">GenerateMap</text></g><!--entity ExternalServices--><g id="elem_ExternalServices"><ellipse cx="484" cy="320.59" fill="#F1F1F1" rx="8" ry="8" style="stroke:#181818;stroke-width:0.5;"></ellipse><text fill="#000000" font-family="sans-serif" font-size="14" lengthAdjust="spacing" textLength="113" x="427.5" y="350.5851">ExternalServices</text></g><!--link WebApp to GenerateMap--><g id="link_WebApp_GenerateMap"><path d="M474.87,71.17 C462.42,80 440.66,97.77 432,119.29 C422.01,144.13 451.14,167.9 469.76,180.05 " fill="none" id="WebApp-to-GenerateMap" style="stroke:#181818;stroke-width:1.0;"></path><polygon fill="#181818" points="473.69,183.16,468.2176,174.9714,469.4629,180.4895,463.9448,181.7348,473.69,183.16" style="stroke:#181818;stroke-width:1.0;"></polygon><text fill="#000000" font-family="sans-serif" font-size="13" lengthAdjust="spacing" textLength="57" x="433" y="132.3569">Depends</text></g><!--reverse link WebApp to GenerateMap--><g id="link_WebApp_GenerateMap"><path d="M488.28,79 C492.2,93.3 497.09,116.28 495,136.29 C493.37,151.94 489.05,169.8 486.34,180.04 " fill="none" id="WebApp-backto-GenerateMap" style="stroke:#181818;stroke-width:1.0;"></path><polygon fill="#181818" points="486.69,74.43,485.3087,84.1815,488.0598,79.2387,493.0027,81.9898,486.69,74.43" style="stroke:#181818;stroke-width:1.0;"></polygon><text fill="#000000" font-family="sans-serif" font-size="13" lengthAdjust="spacing" textLength="106" x="496" y="132.3569">Receives Results</text></g><!--link GenerateMap to ExternalServices--><g id="link_GenerateMap_ExternalServices"><path d="M484,198.92 C484,220.84 484,279.57 484,306.17 " fill="none" id="GenerateMap-to-ExternalServices" style="stroke:#181818;stroke-width:1.0;"></path><polygon fill="#181818" points="484,310.91,488,301.91,484,305.91,480,301.91,484,310.91" style="stroke:#181818;stroke-width:1.0;"></polygon><text fill="#000000" font-family="sans-serif" font-size="13" lengthAdjust="spacing" textLength="56" x="485" y="257.6569">Interacts</text></g><!--SRC=[NO_TIiGm48Nl-nJ3tdSVO151qBgA-qDRK915nkoXXAPfDfFz4V7TJMi3wkt7cU-SSQnQRa2pPxpJZND6AmwwjpFwp8XU2yFIKk6vmxdtxMvWothrH3KwPpX0HbI5UAIeq6O0NrdcalOU5ZxcQCLkSZOJUklOpTt7A5WZ3FwNlyTtbm1lsL05Vz8ACXcMTRsb4eSZ9FmCUAmsQzgo5ssRqH7VYTzGlk_FDh-cD2Eke0NTmi7k9VjDKp9rfieOVx0HiGgIh5Tv_izOGa6VOhg474sGRm00]--></g></svg>