<!--?xml version="1.0" encoding="us-ascii" standalone="no"?--><svg xmlns="http://www.w3.org/2000/svg" xmlns:xlink="http://www.w3.org/1999/xlink" contentstyletype="text/css" height="540px" preserveAspectRatio="none" style="width:563px;height:540px;background:#FFFFFF;" version="1.1" viewBox="0 0 563 540" width="563px" zoomAndPan="magnify"><defs></defs><g><!--class generate_map--><g id="elem_generate_map"><rect codeline="1" fill="#F1F1F1" height="162.0781" id="generate_map" rx="2.5" ry="2.5" style="stroke:#181818;stroke-width:0.5;" width="384" x="89.5" y="180.89"></rect><ellipse cx="227.25" cy="196.89" fill="#ADD1B2" rx="11" ry="11" style="stroke:#181818;stroke-width:1.0;"></ellipse><path d="M230.2188,202.5306 Q229.6406,202.8275 229,202.9681 Q228.3594,203.1244 227.6563,203.1244 Q225.1563,203.1244 223.8281,201.4838 Q222.5156,199.8275 222.5156,196.7025 Q222.5156,193.5775 223.8281,191.9213 Q225.1563,190.265 227.6563,190.265 Q228.3594,190.265 229,190.4213 Q229.6563,190.5775 230.2188,190.8744 L230.2188,193.5931 Q229.5938,193.015 229,192.7494 Q228.4063,192.4681 227.7813,192.4681 Q226.4375,192.4681 225.75,193.5463 Q225.0625,194.6088 225.0625,196.7025 Q225.0625,198.7963 225.75,199.8744 Q226.4375,200.9369 227.7813,200.9369 Q228.4063,200.9369 229,200.6713 Q229.5938,200.39 230.2188,199.8119 L230.2188,202.5306 Z " fill="#000000"></path><text fill="#000000" font-family="sans-serif" font-size="14" lengthAdjust="spacing" textLength="100" x="247.75" y="201.7367">generate_map</text><line style="stroke:#181818;stroke-width:0.5;" x1="90.5" x2="472.5" y1="212.89" y2="212.89"></line><rect fill="none" height="6" style="stroke:#C82930;stroke-width:1.0;" width="6" x="97.5" y="223.5384"></rect><text fill="#000000" font-family="sans-serif" font-size="14" lengthAdjust="spacing" textLength="177" x="109.5" y="229.8851">stations_info: List[Station]</text><rect fill="none" height="6" style="stroke:#C82930;stroke-width:1.0;" width="6" x="97.5" y="239.8353"></rect><text fill="#000000" font-family="sans-serif" font-size="14" lengthAdjust="spacing" textLength="199" x="109.5" y="246.182">neighbor_info: List[Neighbor]</text><rect fill="none" height="6" style="stroke:#C82930;stroke-width:1.0;" width="6" x="97.5" y="256.1322"></rect><text fill="#000000" font-family="sans-serif" font-size="14" lengthAdjust="spacing" textLength="134" x="109.5" y="262.4789">lines_info: List[Line]</text><line style="stroke:#181818;stroke-width:0.5;" x1="90.5" x2="472.5" y1="269.7806" y2="269.7806"></line><ellipse cx="100.5" cy="283.4291" fill="#84BE84" rx="3" ry="3" style="stroke:#038048;stroke-width:1.0;"></ellipse><text fill="#000000" font-family="sans-serif" font-size="14" lengthAdjust="spacing" textLength="166" x="109.5" y="286.7757">get_subway_data(): void</text><ellipse cx="100.5" cy="299.7259" fill="#84BE84" rx="3" ry="3" style="stroke:#038048;stroke-width:1.0;"></ellipse><text fill="#000000" font-family="sans-serif" font-size="14" lengthAdjust="spacing" textLength="180" x="109.5" y="303.0726">extract_station_info(): void</text><ellipse cx="100.5" cy="316.0228" fill="#84BE84" rx="3" ry="3" style="stroke:#038048;stroke-width:1.0;"></ellipse><text fill="#000000" font-family="sans-serif" font-size="14" lengthAdjust="spacing" textLength="182" x="109.5" y="319.3695">build_adjacency_list(): void</text><ellipse cx="100.5" cy="332.3197" fill="#84BE84" rx="3" ry="3" style="stroke:#038048;stroke-width:1.0;"></ellipse><text fill="#000000" font-family="sans-serif" font-size="14" lengthAdjust="spacing" textLength="358" x="109.5" y="335.6664">generate_map(source: Station, target: Station): void</text></g><!--class FlaskApp--><g id="elem_FlaskApp"><rect codeline="12" fill="#F1F1F1" height="96.8906" id="FlaskApp" rx="2.5" ry="2.5" style="stroke:#181818;stroke-width:0.5;" width="227" x="168" y="7"></rect><ellipse cx="246.25" cy="23" fill="#ADD1B2" rx="11" ry="11" style="stroke:#181818;stroke-width:1.0;"></ellipse><path d="M249.2188,28.6406 Q248.6406,28.9375 248,29.0781 Q247.3594,29.2344 246.6563,29.2344 Q244.1563,29.2344 242.8281,27.5938 Q241.5156,25.9375 241.5156,22.8125 Q241.5156,19.6875 242.8281,18.0313 Q244.1563,16.375 246.6563,16.375 Q247.3594,16.375 248,16.5313 Q248.6563,16.6875 249.2188,16.9844 L249.2188,19.7031 Q248.5938,19.125 248,18.8594 Q247.4063,18.5781 246.7813,18.5781 Q245.4375,18.5781 244.75,19.6563 Q244.0625,20.7188 244.0625,22.8125 Q244.0625,24.9063 244.75,25.9844 Q245.4375,27.0469 246.7813,27.0469 Q247.4063,27.0469 248,26.7813 Q248.5938,26.5 249.2188,25.9219 L249.2188,28.6406 Z " fill="#000000"></path><text fill="#000000" font-family="sans-serif" font-size="14" lengthAdjust="spacing" textLength="62" x="266.75" y="27.8467">FlaskApp</text><line style="stroke:#181818;stroke-width:0.5;" x1="169" x2="394" y1="39" y2="39"></line><line style="stroke:#181818;stroke-width:0.5;" x1="169" x2="394" y1="47" y2="47"></line><ellipse cx="179" cy="60.6484" fill="#84BE84" rx="3" ry="3" style="stroke:#038048;stroke-width:1.0;"></ellipse><text fill="#000000" font-family="sans-serif" font-size="14" lengthAdjust="spacing" textLength="122" x="188" y="63.9951">main_page(): void</text><ellipse cx="179" cy="76.9453" fill="#84BE84" rx="3" ry="3" style="stroke:#038048;stroke-width:1.0;"></ellipse><text fill="#000000" font-family="sans-serif" font-size="14" lengthAdjust="spacing" textLength="201" x="188" y="80.292">map_generation_page(): void</text><ellipse cx="179" cy="93.2422" fill="#84BE84" rx="3" ry="3" style="stroke:#038048;stroke-width:1.0;"></ellipse><text fill="#000000" font-family="sans-serif" font-size="14" lengthAdjust="spacing" textLength="77" x="188" y="96.5889">map(): void</text></g><!--class Station--><g id="elem_Station"><rect codeline="18" fill="#F1F1F1" height="113.1875" id="Station" rx="2.5" ry="2.5" style="stroke:#181818;stroke-width:0.5;" width="153" x="7" y="419.97"></rect><ellipse cx="55.25" cy="435.97" fill="#ADD1B2" rx="11" ry="11" style="stroke:#181818;stroke-width:1.0;"></ellipse><path d="M58.2188,441.6106 Q57.6406,441.9075 57,442.0481 Q56.3594,442.2044 55.6563,442.2044 Q53.1563,442.2044 51.8281,440.5637 Q50.5156,438.9075 50.5156,435.7825 Q50.5156,432.6575 51.8281,431.0012 Q53.1563,429.345 55.6563,429.345 Q56.3594,429.345 57,429.5012 Q57.6563,429.6575 58.2188,429.9544 L58.2188,432.6731 Q57.5938,432.095 57,431.8294 Q56.4063,431.5481 55.7813,431.5481 Q54.4375,431.5481 53.75,432.6262 Q53.0625,433.6887 53.0625,435.7825 Q53.0625,437.8762 53.75,438.9544 Q54.4375,440.0169 55.7813,440.0169 Q56.4063,440.0169 57,439.7512 Q57.5938,439.47 58.2188,438.8919 L58.2188,441.6106 Z " fill="#000000"></path><text fill="#000000" font-family="sans-serif" font-size="14" lengthAdjust="spacing" textLength="48" x="75.75" y="440.8167">Station</text><line style="stroke:#181818;stroke-width:0.5;" x1="8" x2="159" y1="451.97" y2="451.97"></line><rect fill="none" height="6" style="stroke:#C82930;stroke-width:1.0;" width="6" x="15" y="462.6184"></rect><text fill="#000000" font-family="sans-serif" font-size="14" lengthAdjust="spacing" textLength="38" x="27" y="468.9651">id: int</text><rect fill="none" height="6" style="stroke:#C82930;stroke-width:1.0;" width="6" x="15" y="478.9153"></rect><text fill="#000000" font-family="sans-serif" font-size="14" lengthAdjust="spacing" textLength="87" x="27" y="485.262">name: string</text><line style="stroke:#181818;stroke-width:0.5;" x1="8" x2="159" y1="492.5637" y2="492.5637"></line><ellipse cx="18" cy="506.2122" fill="#84BE84" rx="3" ry="3" style="stroke:#038048;stroke-width:1.0;"></ellipse><text fill="#000000" font-family="sans-serif" font-size="14" lengthAdjust="spacing" textLength="78" x="27" y="509.5589">get_id(): int</text><ellipse cx="18" cy="522.5091" fill="#84BE84" rx="3" ry="3" style="stroke:#038048;stroke-width:1.0;"></ellipse><text fill="#000000" font-family="sans-serif" font-size="14" lengthAdjust="spacing" textLength="127" x="27" y="525.8557">get_name(): string</text></g><!--class Neighbor--><g id="elem_Neighbor"><rect codeline="26" fill="#F1F1F1" height="113.1875" id="Neighbor" rx="2.5" ry="2.5" style="stroke:#181818;stroke-width:0.5;" width="173" x="195" y="419.97"></rect><ellipse cx="245.75" cy="435.97" fill="#ADD1B2" rx="11" ry="11" style="stroke:#181818;stroke-width:1.0;"></ellipse><path d="M248.7188,441.6106 Q248.1406,441.9075 247.5,442.0481 Q246.8594,442.2044 246.1563,442.2044 Q243.6563,442.2044 242.3281,440.5637 Q241.0156,438.9075 241.0156,435.7825 Q241.0156,432.6575 242.3281,431.0012 Q243.6563,429.345 246.1563,429.345 Q246.8594,429.345 247.5,429.5012 Q248.1563,429.6575 248.7188,429.9544 L248.7188,432.6731 Q248.0938,432.095 247.5,431.8294 Q246.9063,431.5481 246.2813,431.5481 Q244.9375,431.5481 244.25,432.6262 Q243.5625,433.6887 243.5625,435.7825 Q243.5625,437.8762 244.25,438.9544 Q244.9375,440.0169 246.2813,440.0169 Q246.9063,440.0169 247.5,439.7512 Q248.0938,439.47 248.7188,438.8919 L248.7188,441.6106 Z " fill="#000000"></path><text fill="#000000" font-family="sans-serif" font-size="14" lengthAdjust="spacing" textLength="63" x="266.25" y="440.8167">Neighbor</text><line style="stroke:#181818;stroke-width:0.5;" x1="196" x2="367" y1="451.97" y2="451.97"></line><rect fill="none" height="6" style="stroke:#C82930;stroke-width:1.0;" width="6" x="203" y="462.6184"></rect><text fill="#000000" font-family="sans-serif" font-size="14" lengthAdjust="spacing" textLength="92" x="215" y="468.9651">station_id: int</text><rect fill="none" height="6" style="stroke:#C82930;stroke-width:1.0;" width="6" x="203" y="478.9153"></rect><text fill="#000000" font-family="sans-serif" font-size="14" lengthAdjust="spacing" textLength="107" x="215" y="485.262">neighbor_id: int</text><line style="stroke:#181818;stroke-width:0.5;" x1="196" x2="367" y1="492.5637" y2="492.5637"></line><ellipse cx="206" cy="506.2122" fill="#84BE84" rx="3" ry="3" style="stroke:#038048;stroke-width:1.0;"></ellipse><text fill="#000000" font-family="sans-serif" font-size="14" lengthAdjust="spacing" textLength="132" x="215" y="509.5589">get_station_id(): int</text><ellipse cx="206" cy="522.5091" fill="#84BE84" rx="3" ry="3" style="stroke:#038048;stroke-width:1.0;"></ellipse><text fill="#000000" font-family="sans-serif" font-size="14" lengthAdjust="spacing" textLength="147" x="215" y="525.8557">get_neighbor_id(): int</text></g><!--class Line--><g id="elem_Line"><rect codeline="34" fill="#F1F1F1" height="113.1875" id="Line" rx="2.5" ry="2.5" style="stroke:#181818;stroke-width:0.5;" width="153" x="403" y="419.97"></rect><ellipse cx="461.25" cy="435.97" fill="#ADD1B2" rx="11" ry="11" style="stroke:#181818;stroke-width:1.0;"></ellipse><path d="M464.2188,441.6106 Q463.6406,441.9075 463,442.0481 Q462.3594,442.2044 461.6563,442.2044 Q459.1563,442.2044 457.8281,440.5637 Q456.5156,438.9075 456.5156,435.7825 Q456.5156,432.6575 457.8281,431.0012 Q459.1563,429.345 461.6563,429.345 Q462.3594,429.345 463,429.5012 Q463.6563,429.6575 464.2188,429.9544 L464.2188,432.6731 Q463.5938,432.095 463,431.8294 Q462.4063,431.5481 461.7813,431.5481 Q460.4375,431.5481 459.75,432.6262 Q459.0625,433.6887 459.0625,435.7825 Q459.0625,437.8762 459.75,438.9544 Q460.4375,440.0169 461.7813,440.0169 Q462.4063,440.0169 463,439.7512 Q463.5938,439.47 464.2188,438.8919 L464.2188,441.6106 Z " fill="#000000"></path><text fill="#000000" font-family="sans-serif" font-size="14" lengthAdjust="spacing" textLength="28" x="481.75" y="440.8167">Line</text><line style="stroke:#181818;stroke-width:0.5;" x1="404" x2="555" y1="451.97" y2="451.97"></line><rect fill="none" height="6" style="stroke:#C82930;stroke-width:1.0;" width="6" x="411" y="462.6184"></rect><text fill="#000000" font-family="sans-serif" font-size="14" lengthAdjust="spacing" textLength="38" x="423" y="468.9651">id: int</text><rect fill="none" height="6" style="stroke:#C82930;stroke-width:1.0;" width="6" x="411" y="478.9153"></rect><text fill="#000000" font-family="sans-serif" font-size="14" lengthAdjust="spacing" textLength="87" x="423" y="485.262">name: string</text><line style="stroke:#181818;stroke-width:0.5;" x1="404" x2="555" y1="492.5637" y2="492.5637"></line><ellipse cx="414" cy="506.2122" fill="#84BE84" rx="3" ry="3" style="stroke:#038048;stroke-width:1.0;"></ellipse><text fill="#000000" font-family="sans-serif" font-size="14" lengthAdjust="spacing" textLength="78" x="423" y="509.5589">get_id(): int</text><ellipse cx="414" cy="522.5091" fill="#84BE84" rx="3" ry="3" style="stroke:#038048;stroke-width:1.0;"></ellipse><text fill="#000000" font-family="sans-serif" font-size="14" lengthAdjust="spacing" textLength="127" x="423" y="525.8557">get_name(): string</text></g><!--link generate_map to Station--><g id="link_generate_map_Station"><path codeline="42" d="M206.64,343.32 C184.38,367.24 160.37,393.01 139.52,415.4 " fill="none" id="generate_map-to-Station" style="stroke:#181818;stroke-width:1.0;"></path><polygon fill="#181818" points="136.67,418.54,145.7281,414.6734,140.075,414.8786,139.8698,409.2254,136.67,418.54" style="stroke:#181818;stroke-width:1.0;"></polygon><text fill="#000000" font-family="sans-serif" font-size="13" lengthAdjust="spacing" textLength="54" x="178.5" y="386.0369">contains</text></g><!--link generate_map to Neighbor--><g id="link_generate_map_Neighbor"><path codeline="43" d="M281.5,343.32 C281.5,366.64 281.5,391.73 281.5,413.72 " fill="none" id="generate_map-to-Neighbor" style="stroke:#181818;stroke-width:1.0;"></path><polygon fill="#181818" points="281.5,418.54,285.5,409.54,281.5,413.54,277.5,409.54,281.5,418.54" style="stroke:#181818;stroke-width:1.0;"></polygon><text fill="#000000" font-family="sans-serif" font-size="13" lengthAdjust="spacing" textLength="54" x="282.5" y="386.0369">contains</text></g><!--link generate_map to Line--><g id="link_generate_map_Line"><path codeline="44" d="M356.36,343.32 C378.62,367.24 402.63,393.01 423.48,415.4 " fill="none" id="generate_map-to-Line" style="stroke:#181818;stroke-width:1.0;"></path><polygon fill="#181818" points="426.33,418.54,423.1302,409.2254,422.925,414.8786,417.2719,414.6734,426.33,418.54" style="stroke:#181818;stroke-width:1.0;"></polygon><text fill="#000000" font-family="sans-serif" font-size="13" lengthAdjust="spacing" textLength="54" x="398.5" y="386.0369">contains</text></g><!--link FlaskApp to generate_map--><g id="link_FlaskApp_generate_map"><path codeline="45" d="M281.5,104.39 C281.5,125.37 281.5,150.66 281.5,174.72 " fill="none" id="FlaskApp-to-generate_map" style="stroke:#181818;stroke-width:1.0;"></path><polygon fill="#181818" points="281.5,179.48,285.5,170.48,281.5,174.48,277.5,170.48,281.5,179.48" style="stroke:#181818;stroke-width:1.0;"></polygon><text fill="#000000" font-family="sans-serif" font-size="13" lengthAdjust="spacing" textLength="48" x="282.5" y="146.9569">invokes</text></g><!--SRC=[hPAnReGm38Ptdi8ZrPKNOAZKfTEfIyVg59cGKlSWGKcuwwdgkpSX8H1HTUh2yFkBV_itl4TZe1DIQBI23JZ2Lm5GWR5eIKd3IBwf6evaxEjBq4up80LrxutIM-0vQe7eIOhi_T49fyBL3ixHCZCrLxon5YsMTpLS5BLpJNnQZTpLWztS8GEQYVgMOVk1N4X-OxrhdW7RVKgZ9ir53N7wUx2edNqIbeVVHS7dD9xSz_muXYGEC219Dc8dCWlNcKKRF-DlzNBNEJh6YAcjWQGDQUBWHZHMa-pMXAZrFG8J5CzvBPAfyv9yVZsMMQI3HN4zHA9tTkkRfPGi_JN_TPFiBwogXnHN3Ln9wyvWzanQ_2ze7dK3f0lxOaRx6I_gBCmF]--></g></svg>