<!--?xml version="1.0" encoding="us-ascii" standalone="no"?--><svg xmlns="http://www.w3.org/2000/svg" xmlns:xlink="http://www.w3.org/1999/xlink" contentstyletype="text/css" height="1312px" preserveAspectRatio="none" style="width:1105px;height:1312px;background:#FFFFFF;" version="1.1" viewBox="0 0 1105 1312" width="1105px" zoomAndPan="magnify"><defs></defs><g><text fill="#000000" font-family="sans-serif" font-size="14" font-weight="bold" lengthAdjust="spacing" textLength="260" x="421.75" y="27.9951">Subway Route Finder Application</text><rect fill="none" height="307.1328" style="stroke:#000000;stroke-width:1.5;" width="940.5" x="30" y="294.2578"></rect><rect fill="none" height="541.0625" style="stroke:#000000;stroke-width:1.5;" width="970.5" x="10" y="644.5234"></rect><rect fill="none" height="409.5313" style="stroke:#000000;stroke-width:1.5;" width="950.5" x="20" y="769.0547"></rect><rect fill="none" height="88.3984" style="stroke:#000000;stroke-width:1.5;" width="442" x="30" y="822.3203"></rect><line style="stroke:#181818;stroke-width:0.5;stroke-dasharray:5.0,5.0;" x1="59" x2="59" y1="118.5938" y2="1231.7188"></line><line style="stroke:#181818;stroke-width:0.5;stroke-dasharray:5.0,5.0;" x1="357.5" x2="357.5" y1="118.5938" y2="1231.7188"></line><line style="stroke:#181818;stroke-width:0.5;stroke-dasharray:5.0,5.0;" x1="610" x2="610" y1="118.5938" y2="1231.7188"></line><line style="stroke:#181818;stroke-width:0.5;stroke-dasharray:5.0,5.0;" x1="830.5" x2="830.5" y1="118.5938" y2="1231.7188"></line><line style="stroke:#181818;stroke-width:0.5;stroke-dasharray:5.0,5.0;" x1="919.5" x2="919.5" y1="118.5938" y2="1231.7188"></line><line style="stroke:#181818;stroke-width:0.5;stroke-dasharray:5.0,5.0;" x1="1008.5" x2="1008.5" y1="118.5938" y2="1231.7188"></line><line style="stroke:#181818;stroke-width:0.5;stroke-dasharray:5.0,5.0;" x1="1077.5" x2="1077.5" y1="118.5938" y2="1231.7188"></line><text fill="#000000" font-family="sans-serif" font-size="14" lengthAdjust="spacing" textLength="32" x="40" y="115.292">User</text><ellipse cx="59" cy="50.7969" fill="#E2E2F0" rx="8" ry="8" style="stroke:#181818;stroke-width:0.5;"></ellipse><path d="M59,58.7969 L59,85.7969 M46,66.7969 L72,66.7969 M59,85.7969 L46,100.7969 M59,85.7969 L72,100.7969 " fill="none" style="stroke:#181818;stroke-width:0.5;"></path><text fill="#000000" font-family="sans-serif" font-size="14" lengthAdjust="spacing" textLength="32" x="40" y="1243.7139">User</text><ellipse cx="59" cy="1255.5156" fill="#E2E2F0" rx="8" ry="8" style="stroke:#181818;stroke-width:0.5;"></ellipse><path d="M59,1263.5156 L59,1290.5156 M46,1271.5156 L72,1271.5156 M59,1290.5156 L46,1305.5156 M59,1290.5156 L72,1305.5156 " fill="none" style="stroke:#181818;stroke-width:0.5;"></path><rect fill="#E2E2F0" height="30.2969" rx="2.5" ry="2.5" style="stroke:#181818;stroke-width:0.5;" width="89" x="313.5" y="87.2969"></rect><text fill="#000000" font-family="sans-serif" font-size="14" lengthAdjust="spacing" textLength="75" x="320.5" y="107.292">Application</text><rect fill="#E2E2F0" height="30.2969" rx="2.5" ry="2.5" style="stroke:#181818;stroke-width:0.5;" width="89" x="313.5" y="1230.7188"></rect><text fill="#000000" font-family="sans-serif" font-size="14" lengthAdjust="spacing" textLength="75" x="320.5" y="1250.7139">Application</text><rect fill="#E2E2F0" height="30.2969" rx="2.5" ry="2.5" style="stroke:#181818;stroke-width:0.5;" width="134" x="543" y="87.2969"></rect><text fill="#000000" font-family="sans-serif" font-size="14" lengthAdjust="spacing" textLength="120" x="550" y="107.292">generate_map.py</text><rect fill="#E2E2F0" height="30.2969" rx="2.5" ry="2.5" style="stroke:#181818;stroke-width:0.5;" width="134" x="543" y="1230.7188"></rect><text fill="#000000" font-family="sans-serif" font-size="14" lengthAdjust="spacing" textLength="120" x="550" y="1250.7139">generate_map.py</text><rect fill="#E2E2F0" height="30.2969" rx="2.5" ry="2.5" style="stroke:#181818;stroke-width:0.5;" width="77" x="792.5" y="87.2969"></rect><text fill="#000000" font-family="sans-serif" font-size="14" lengthAdjust="spacing" textLength="63" x="799.5" y="107.292">networkx</text><rect fill="#E2E2F0" height="30.2969" rx="2.5" ry="2.5" style="stroke:#181818;stroke-width:0.5;" width="77" x="792.5" y="1230.7188"></rect><text fill="#000000" font-family="sans-serif" font-size="14" lengthAdjust="spacing" textLength="63" x="799.5" y="1250.7139">networkx</text><rect fill="#E2E2F0" height="30.2969" rx="2.5" ry="2.5" style="stroke:#181818;stroke-width:0.5;" width="81" x="879.5" y="87.2969"></rect><text fill="#000000" font-family="sans-serif" font-size="14" lengthAdjust="spacing" textLength="67" x="886.5" y="107.292">matplotlib</text><rect fill="#E2E2F0" height="30.2969" rx="2.5" ry="2.5" style="stroke:#181818;stroke-width:0.5;" width="81" x="879.5" y="1230.7188"></rect><text fill="#000000" font-family="sans-serif" font-size="14" lengthAdjust="spacing" textLength="67" x="886.5" y="1250.7139">matplotlib</text><rect fill="#E2E2F0" height="30.2969" rx="2.5" ry="2.5" style="stroke:#181818;stroke-width:0.5;" width="76" x="970.5" y="87.2969"></rect><text fill="#000000" font-family="sans-serif" font-size="14" lengthAdjust="spacing" textLength="62" x="977.5" y="107.292">requests</text><rect fill="#E2E2F0" height="30.2969" rx="2.5" ry="2.5" style="stroke:#181818;stroke-width:0.5;" width="76" x="970.5" y="1230.7188"></rect><text fill="#000000" font-family="sans-serif" font-size="14" lengthAdjust="spacing" textLength="62" x="977.5" y="1250.7139">requests</text><rect fill="#E2E2F0" height="30.2969" rx="2.5" ry="2.5" style="stroke:#181818;stroke-width:0.5;" width="43" x="1056.5" y="87.2969"></rect><text fill="#000000" font-family="sans-serif" font-size="14" lengthAdjust="spacing" textLength="29" x="1063.5" y="107.292">json</text><rect fill="#E2E2F0" height="30.2969" rx="2.5" ry="2.5" style="stroke:#181818;stroke-width:0.5;" width="43" x="1056.5" y="1230.7188"></rect><text fill="#000000" font-family="sans-serif" font-size="14" lengthAdjust="spacing" textLength="29" x="1063.5" y="1250.7139">json</text><polygon fill="#181818" points="346,145.7266,356,149.7266,346,153.7266,350,149.7266" style="stroke:#181818;stroke-width:1.0;"></polygon><line style="stroke:#181818;stroke-width:1.0;" x1="59" x2="352" y1="149.7266" y2="149.7266"></line><text fill="#000000" font-family="sans-serif" font-size="13" lengthAdjust="spacing" textLength="270" x="66" y="144.6606">Accesses Subway Route Finder application</text><polygon fill="#181818" points="70,174.8594,60,178.8594,70,182.8594,66,178.8594" style="stroke:#181818;stroke-width:1.0;"></polygon><line style="stroke:#181818;stroke-width:1.0;" x1="64" x2="357" y1="178.8594" y2="178.8594"></line><text fill="#000000" font-family="sans-serif" font-size="13" lengthAdjust="spacing" textLength="211" x="76" y="173.7935">Displays home page (index.html)</text><polygon fill="#181818" points="346,203.9922,356,207.9922,346,211.9922,350,207.9922" style="stroke:#181818;stroke-width:1.0;"></polygon><line style="stroke:#181818;stroke-width:1.0;" x1="59" x2="352" y1="207.9922" y2="207.9922"></line><text fill="#000000" font-family="sans-serif" font-size="13" lengthAdjust="spacing" textLength="246" x="66" y="202.9263">Enters source and destination stations</text><polygon fill="#181818" points="346,233.125,356,237.125,346,241.125,350,237.125" style="stroke:#181818;stroke-width:1.0;"></polygon><line style="stroke:#181818;stroke-width:1.0;" x1="59" x2="352" y1="237.125" y2="237.125"></line><text fill="#000000" font-family="sans-serif" font-size="13" lengthAdjust="spacing" textLength="163" x="66" y="232.0591">Clicks "Find Route" button</text><line style="stroke:#181818;stroke-width:1.0;" x1="358" x2="400" y1="266.2578" y2="266.2578"></line><line style="stroke:#181818;stroke-width:1.0;" x1="400" x2="400" y1="266.2578" y2="279.2578"></line><line style="stroke:#181818;stroke-width:1.0;" x1="359" x2="400" y1="279.2578" y2="279.2578"></line><polygon fill="#181818" points="369,275.2578,359,279.2578,369,283.2578,365,279.2578" style="stroke:#181818;stroke-width:1.0;"></polygon><text fill="#000000" font-family="sans-serif" font-size="13" lengthAdjust="spacing" textLength="95" x="365" y="261.1919">Validates input</text><path d="M30,294.2578 L94,294.2578 L94,301.3906 L84,311.3906 L30,311.3906 L30,294.2578 " fill="#EEEEEE" style="stroke:#000000;stroke-width:1.5;"></path><rect fill="none" height="307.1328" style="stroke:#000000;stroke-width:1.5;" width="940.5" x="30" y="294.2578"></rect><text fill="#000000" font-family="sans-serif" font-size="13" font-weight="bold" lengthAdjust="spacing" textLength="19" x="45" y="307.3247">alt</text><text fill="#000000" font-family="sans-serif" font-size="11" font-weight="bold" lengthAdjust="spacing" textLength="105" x="109" y="306.4683">[Input is invalid]</text><polygon fill="#181818" points="70,328.5234,60,332.5234,70,336.5234,66,332.5234" style="stroke:#181818;stroke-width:1.0;"></polygon><line style="stroke:#181818;stroke-width:1.0;" x1="64" x2="357" y1="332.5234" y2="332.5234"></line><text fill="#000000" font-family="sans-serif" font-size="13" lengthAdjust="spacing" textLength="151" x="76" y="327.4575">Displays error message</text><line style="stroke:#000000;stroke-width:1.0;stroke-dasharray:2.0,2.0;" x1="30" x2="970.5" y1="341.5234" y2="341.5234"></line><text fill="#000000" font-family="sans-serif" font-size="11" font-weight="bold" lengthAdjust="spacing" textLength="93" x="35" y="351.7339">[Input is valid]</text><polygon fill="#181818" points="598,372.4609,608,376.4609,598,380.4609,602,376.4609" style="stroke:#181818;stroke-width:1.0;"></polygon><line style="stroke:#181818;stroke-width:1.0;" x1="358" x2="604" y1="376.4609" y2="376.4609"></line><text fill="#000000" font-family="sans-serif" font-size="13" lengthAdjust="spacing" textLength="228" x="365" y="371.395">Calls generate_map(source, target)</text><polygon fill="#181818" points="819,401.5938,829,405.5938,819,409.5938,823,405.5938" style="stroke:#181818;stroke-width:1.0;"></polygon><line style="stroke:#181818;stroke-width:1.0;" x1="610" x2="825" y1="405.5938" y2="405.5938"></line><text fill="#000000" font-family="sans-serif" font-size="13" lengthAdjust="spacing" textLength="197" x="617" y="400.5278">Creates graph and adds nodes</text><polygon fill="#181818" points="819,430.7266,829,434.7266,819,438.7266,823,434.7266" style="stroke:#181818;stroke-width:1.0;"></polygon><line style="stroke:#181818;stroke-width:1.0;" x1="610" x2="825" y1="434.7266" y2="434.7266"></line><text fill="#000000" font-family="sans-serif" font-size="13" lengthAdjust="spacing" textLength="158" x="617" y="429.6606">Adds edges to the graph</text><polygon fill="#181818" points="819,459.8594,829,463.8594,819,467.8594,823,463.8594" style="stroke:#181818;stroke-width:1.0;"></polygon><line style="stroke:#181818;stroke-width:1.0;" x1="610" x2="825" y1="463.8594" y2="463.8594"></line><text fill="#000000" font-family="sans-serif" font-size="13" lengthAdjust="spacing" textLength="181" x="617" y="458.7935">Computes the shortest path</text><polygon fill="#181818" points="908,488.9922,918,492.9922,908,496.9922,912,492.9922" style="stroke:#181818;stroke-width:1.0;"></polygon><line style="stroke:#181818;stroke-width:1.0;" x1="610" x2="914" y1="492.9922" y2="492.9922"></line><text fill="#000000" font-family="sans-serif" font-size="13" lengthAdjust="spacing" textLength="148" x="617" y="487.9263">Draws the subway map</text><polygon fill="#181818" points="908,518.125,918,522.125,908,526.125,912,522.125" style="stroke:#181818;stroke-width:1.0;"></polygon><line style="stroke:#181818;stroke-width:1.0;" x1="610" x2="914" y1="522.125" y2="522.125"></line><text fill="#000000" font-family="sans-serif" font-size="13" lengthAdjust="spacing" textLength="175" x="617" y="517.0591">Saves the plot as an image</text><line style="stroke:#181818;stroke-width:1.0;" x1="358" x2="400" y1="551.2578" y2="551.2578"></line><line style="stroke:#181818;stroke-width:1.0;" x1="400" x2="400" y1="551.2578" y2="564.2578"></line><line style="stroke:#181818;stroke-width:1.0;" x1="359" x2="400" y1="564.2578" y2="564.2578"></line><polygon fill="#181818" points="369,560.2578,359,564.2578,369,568.2578,365,564.2578" style="stroke:#181818;stroke-width:1.0;"></polygon><text fill="#000000" font-family="sans-serif" font-size="13" lengthAdjust="spacing" textLength="198" x="365" y="546.1919">Displays map page (map.html)</text><polygon fill="#181818" points="70,589.3906,60,593.3906,70,597.3906,66,593.3906" style="stroke:#181818;stroke-width:1.0;"></polygon><line style="stroke:#181818;stroke-width:1.0;" x1="64" x2="357" y1="593.3906" y2="593.3906"></line><text fill="#000000" font-family="sans-serif" font-size="13" lengthAdjust="spacing" textLength="248" x="76" y="588.3247">Shows subway map and shortest route</text><polygon fill="#181818" points="346,625.5234,356,629.5234,346,633.5234,350,629.5234" style="stroke:#181818;stroke-width:1.0;"></polygon><line style="stroke:#181818;stroke-width:1.0;" x1="59" x2="352" y1="629.5234" y2="629.5234"></line><text fill="#000000" font-family="sans-serif" font-size="13" lengthAdjust="spacing" textLength="224" x="66" y="624.4575">Performs additional route searches</text><path d="M10,644.5234 L87,644.5234 L87,651.6563 L77,661.6563 L10,661.6563 L10,644.5234 " fill="#EEEEEE" style="stroke:#000000;stroke-width:1.5;"></path><rect fill="none" height="541.0625" style="stroke:#000000;stroke-width:1.5;" width="970.5" x="10" y="644.5234"></rect><text fill="#000000" font-family="sans-serif" font-size="13" font-weight="bold" lengthAdjust="spacing" textLength="32" x="25" y="657.5903">loop</text><polygon fill="#181818" points="346,678.7891,356,682.7891,346,686.7891,350,682.7891" style="stroke:#181818;stroke-width:1.0;"></polygon><line style="stroke:#181818;stroke-width:1.0;" x1="59" x2="352" y1="682.7891" y2="682.7891"></line><text fill="#000000" font-family="sans-serif" font-size="13" lengthAdjust="spacing" textLength="275" x="66" y="677.7231">Enters new source and destination stations</text><polygon fill="#181818" points="346,707.9219,356,711.9219,346,715.9219,350,711.9219" style="stroke:#181818;stroke-width:1.0;"></polygon><line style="stroke:#181818;stroke-width:1.0;" x1="59" x2="352" y1="711.9219" y2="711.9219"></line><text fill="#000000" font-family="sans-serif" font-size="13" lengthAdjust="spacing" textLength="163" x="66" y="706.856">Clicks "Find Route" button</text><line style="stroke:#181818;stroke-width:1.0;" x1="358" x2="400" y1="741.0547" y2="741.0547"></line><line style="stroke:#181818;stroke-width:1.0;" x1="400" x2="400" y1="741.0547" y2="754.0547"></line><line style="stroke:#181818;stroke-width:1.0;" x1="359" x2="400" y1="754.0547" y2="754.0547"></line><polygon fill="#181818" points="369,750.0547,359,754.0547,369,758.0547,365,754.0547" style="stroke:#181818;stroke-width:1.0;"></polygon><text fill="#000000" font-family="sans-serif" font-size="13" lengthAdjust="spacing" textLength="95" x="365" y="735.9888">Validates input</text><path d="M20,769.0547 L84,769.0547 L84,776.1875 L74,786.1875 L20,786.1875 L20,769.0547 " fill="#EEEEEE" style="stroke:#000000;stroke-width:1.5;"></path><rect fill="none" height="409.5313" style="stroke:#000000;stroke-width:1.5;" width="950.5" x="20" y="769.0547"></rect><text fill="#000000" font-family="sans-serif" font-size="13" font-weight="bold" lengthAdjust="spacing" textLength="19" x="35" y="782.1216">alt</text><text fill="#000000" font-family="sans-serif" font-size="11" font-weight="bold" lengthAdjust="spacing" textLength="105" x="99" y="781.2651">[Input is invalid]</text><polygon fill="#181818" points="70,803.3203,60,807.3203,70,811.3203,66,807.3203" style="stroke:#181818;stroke-width:1.0;"></polygon><line style="stroke:#181818;stroke-width:1.0;" x1="64" x2="357" y1="807.3203" y2="807.3203"></line><text fill="#000000" font-family="sans-serif" font-size="13" lengthAdjust="spacing" textLength="151" x="76" y="802.2544">Displays error message</text><path d="M30,822.3203 L107,822.3203 L107,829.4531 L97,839.4531 L30,839.4531 L30,822.3203 " fill="#EEEEEE" style="stroke:#000000;stroke-width:1.5;"></path><rect fill="none" height="88.3984" style="stroke:#000000;stroke-width:1.5;" width="442" x="30" y="822.3203"></rect><text fill="#000000" font-family="sans-serif" font-size="13" font-weight="bold" lengthAdjust="spacing" textLength="32" x="45" y="835.3872">loop</text><polygon fill="#181818" points="346,856.5859,356,860.5859,346,864.5859,350,860.5859" style="stroke:#181818;stroke-width:1.0;"></polygon><line style="stroke:#181818;stroke-width:1.0;" x1="59" x2="352" y1="860.5859" y2="860.5859"></line><text fill="#000000" font-family="sans-serif" font-size="13" lengthAdjust="spacing" textLength="119" x="66" y="855.52">Enters valid values</text><line style="stroke:#181818;stroke-width:1.0;" x1="358" x2="400" y1="889.7188" y2="889.7188"></line><line style="stroke:#181818;stroke-width:1.0;" x1="400" x2="400" y1="889.7188" y2="902.7188"></line><line style="stroke:#181818;stroke-width:1.0;" x1="359" x2="400" y1="902.7188" y2="902.7188"></line><polygon fill="#181818" points="369,898.7188,359,902.7188,369,906.7188,365,902.7188" style="stroke:#181818;stroke-width:1.0;"></polygon><text fill="#000000" font-family="sans-serif" font-size="13" lengthAdjust="spacing" textLength="95" x="365" y="884.6528">Validates input</text><line style="stroke:#000000;stroke-width:1.0;stroke-dasharray:2.0,2.0;" x1="20" x2="970.5" y1="918.7188" y2="918.7188"></line><text fill="#000000" font-family="sans-serif" font-size="11" font-weight="bold" lengthAdjust="spacing" textLength="93" x="25" y="928.9292">[Input is valid]</text><polygon fill="#181818" points="598,949.6563,608,953.6563,598,957.6563,602,953.6563" style="stroke:#181818;stroke-width:1.0;"></polygon><line style="stroke:#181818;stroke-width:1.0;" x1="358" x2="604" y1="953.6563" y2="953.6563"></line><text fill="#000000" font-family="sans-serif" font-size="13" lengthAdjust="spacing" textLength="228" x="365" y="948.5903">Calls generate_map(source, target)</text><polygon fill="#181818" points="819,978.7891,829,982.7891,819,986.7891,823,982.7891" style="stroke:#181818;stroke-width:1.0;"></polygon><line style="stroke:#181818;stroke-width:1.0;" x1="610" x2="825" y1="982.7891" y2="982.7891"></line><text fill="#000000" font-family="sans-serif" font-size="13" lengthAdjust="spacing" textLength="197" x="617" y="977.7231">Creates graph and adds nodes</text><polygon fill="#181818" points="819,1007.9219,829,1011.9219,819,1015.9219,823,1011.9219" style="stroke:#181818;stroke-width:1.0;"></polygon><line style="stroke:#181818;stroke-width:1.0;" x1="610" x2="825" y1="1011.9219" y2="1011.9219"></line><text fill="#000000" font-family="sans-serif" font-size="13" lengthAdjust="spacing" textLength="158" x="617" y="1006.856">Adds edges to the graph</text><polygon fill="#181818" points="819,1037.0547,829,1041.0547,819,1045.0547,823,1041.0547" style="stroke:#181818;stroke-width:1.0;"></polygon><line style="stroke:#181818;stroke-width:1.0;" x1="610" x2="825" y1="1041.0547" y2="1041.0547"></line><text fill="#000000" font-family="sans-serif" font-size="13" lengthAdjust="spacing" textLength="181" x="617" y="1035.9888">Computes the shortest path</text><polygon fill="#181818" points="908,1066.1875,918,1070.1875,908,1074.1875,912,1070.1875" style="stroke:#181818;stroke-width:1.0;"></polygon><line style="stroke:#181818;stroke-width:1.0;" x1="610" x2="914" y1="1070.1875" y2="1070.1875"></line><text fill="#000000" font-family="sans-serif" font-size="13" lengthAdjust="spacing" textLength="148" x="617" y="1065.1216">Draws the subway map</text><polygon fill="#181818" points="908,1095.3203,918,1099.3203,908,1103.3203,912,1099.3203" style="stroke:#181818;stroke-width:1.0;"></polygon><line style="stroke:#181818;stroke-width:1.0;" x1="610" x2="914" y1="1099.3203" y2="1099.3203"></line><text fill="#000000" font-family="sans-serif" font-size="13" lengthAdjust="spacing" textLength="175" x="617" y="1094.2544">Saves the plot as an image</text><line style="stroke:#181818;stroke-width:1.0;" x1="358" x2="400" y1="1128.4531" y2="1128.4531"></line><line style="stroke:#181818;stroke-width:1.0;" x1="400" x2="400" y1="1128.4531" y2="1141.4531"></line><line style="stroke:#181818;stroke-width:1.0;" x1="359" x2="400" y1="1141.4531" y2="1141.4531"></line><polygon fill="#181818" points="369,1137.4531,359,1141.4531,369,1145.4531,365,1141.4531" style="stroke:#181818;stroke-width:1.0;"></polygon><text fill="#000000" font-family="sans-serif" font-size="13" lengthAdjust="spacing" textLength="198" x="365" y="1123.3872">Displays map page (map.html)</text><polygon fill="#181818" points="70,1166.5859,60,1170.5859,70,1174.5859,66,1170.5859" style="stroke:#181818;stroke-width:1.0;"></polygon><line style="stroke:#181818;stroke-width:1.0;" x1="64" x2="357" y1="1170.5859" y2="1170.5859"></line><text fill="#000000" font-family="sans-serif" font-size="13" lengthAdjust="spacing" textLength="248" x="76" y="1165.52">Shows subway map and shortest route</text><polygon fill="#181818" points="346,1209.7188,356,1213.7188,346,1217.7188,350,1213.7188" style="stroke:#181818;stroke-width:1.0;"></polygon><line style="stroke:#181818;stroke-width:1.0;" x1="59" x2="352" y1="1213.7188" y2="1213.7188"></line><text fill="#000000" font-family="sans-serif" font-size="13" lengthAdjust="spacing" textLength="128" x="66" y="1208.6528">Exits the application</text><!--SRC=[xLJBRjj03BphAuYS4g3D1-HGG6XJeqKT135Sv5RG4YjjizhTBgdO_lkIaXzIcjvwwA4NMTWPBcSubCM99rZrcotkuI7sGl3HXPeob2bvLw6u68e2AuaPrgpdoB0k4cPnbKiOP4eqi9o13GNAAFIjmtITzaPOB6UCGBAD-MbdqDtZ3EfGae_YtSR0vVsN6PhfPqyiRDZ33Fd1evJFHR66j- -Wl86ogeYP-5MhEB5QMi7w1ZuuJXxt36ti218s19V6tbstqlchqyMtGIWpSEnpHO2XXbf5kJ3EWsNuvHFzlJPwOhYmpgE82zZq8iVEIlcAtjKwCWONKYy5Ue5FzWREZfuD_bqcvQm9TMfIfHRacSv5avB5KZMWzpnBvdAK_mO4SqDoLIoMHhvxL7AcGKkJCRM3FwnhXX3LveHMsY7LZJ8bWhGq5amlYftACLn1RcFMTz71of6a-QgVZDi3PGnArKtn5JuVhh3Di90nWElCyt5-fv5ewI4uMxunjkFSLctKFkSUWxEJgcp151JgymBTK_uUSyTctrccw4SQC66kMfs6Zp6zt8j0stzjDrwJEHJQKx-eFpQpUVnVhB-qMBFbkjqv6PjF_ef-0G00]--></g></svg>